<mxfile host="app.diagrams.net" modified="2024-05-12T11:31:43.901Z" agent="Mozilla/5.0 (Windows NT 10.0; Win64; x64) AppleWebKit/537.36 (KHTML, like Gecko) Chrome/124.0.0.0 Safari/537.36" version="24.4.0" etag="4QwQastVZe0VKkKKmSS8" type="github">
  <diagram name="Page-1" id="JAAnaBwpy92dNHu2E1z5">
    <mxGraphModel>
      <root>
        <mxCell id="0" />
        <mxCell id="1" parent="0" />
      </root>
    </mxGraphModel>
  </diagram>
</mxfile>
